<svg version="1.1" xmlns="http://www.w3.org/2000/svg" xmlns:xlink="http://www.w3.org/1999/xlink" width="233" height="79" viewBox="0,0,233,79"><g transform="translate(-127,-140.5)"><g data-paper-data="{&quot;isPaintingLayer&quot;:true}" fill-rule="nonzero" stroke="none" stroke-linecap="butt" stroke-linejoin="miter" stroke-miterlimit="10" stroke-dasharray="" stroke-dashoffset="0" style="mix-blend-mode: normal"><path d="M127,164.5c0,-13.25484 10.74516,-24 24,-24c13.25484,0 24,10.74516 24,24c0,13.25484 -10.74516,24 -24,24c-13.25484,0 -24,-10.74516 -24,-24z" fill="#99c6ff" stroke-width="0"/><path d="M127,171.5c0,-13.25484 10.74516,-24 24,-24c13.25484,0 24,10.74516 24,24c0,13.25484 -10.74516,24 -24,24c-13.25484,0 -24,-10.74516 -24,-24z" fill="#99c6ff" stroke-width="0"/><path d="M127,176.5c0,-13.25484 10.74516,-24 24,-24c13.25484,0 24,10.74516 24,24c0,13.25484 -10.74516,24 -24,24c-13.25484,0 -24,-10.74516 -24,-24z" fill="#99c6ff" stroke-width="0"/><path d="M127,183.5c0,-13.25484 10.74516,-24 24,-24c13.25484,0 24,10.74516 24,24c0,13.25484 -10.74516,24 -24,24c-13.25484,0 -24,-10.74516 -24,-24z" fill="#99c6ff" stroke-width="0"/><path d="M127,190.5c0,-13.25484 10.74516,-24 24,-24c13.25484,0 24,10.74516 24,24c0,13.25484 -10.74516,24 -24,24c-13.25484,0 -24,-10.74516 -24,-24z" fill="#99c6ff" stroke-width="0"/><path d="M127,195.5c0,-13.25484 10.74516,-24 24,-24c13.25484,0 24,10.74516 24,24c0,13.25484 -10.74516,24 -24,24c-13.25484,0 -24,-10.74516 -24,-24z" fill="#99c6ff" stroke-width="0"/><path d="M132,164.5c0,-13.25484 10.74516,-24 24,-24c13.25484,0 24,10.74516 24,24c0,13.25484 -10.74516,24 -24,24c-13.25484,0 -24,-10.74516 -24,-24z" fill="#99c6ff" stroke-width="0"/><path d="M132,171.5c0,-13.25484 10.74516,-24 24,-24c13.25484,0 24,10.74516 24,24c0,13.25484 -10.74516,24 -24,24c-13.25484,0 -24,-10.74516 -24,-24z" fill="#99c6ff" stroke-width="0"/><path d="M132,176.5c0,-13.25484 10.74516,-24 24,-24c13.25484,0 24,10.74516 24,24c0,13.25484 -10.74516,24 -24,24c-13.25484,0 -24,-10.74516 -24,-24z" fill="#99c6ff" stroke-width="0"/><path d="M132,183.5c0,-13.25484 10.74516,-24 24,-24c13.25484,0 24,10.74516 24,24c0,13.25484 -10.74516,24 -24,24c-13.25484,0 -24,-10.74516 -24,-24z" fill="#99c6ff" stroke-width="0"/><path d="M132,190.5c0,-13.25484 10.74516,-24 24,-24c13.25484,0 24,10.74516 24,24c0,13.25484 -10.74516,24 -24,24c-13.25484,0 -24,-10.74516 -24,-24z" fill="#99c6ff" stroke-width="0"/><path d="M132,195.5c0,-13.25484 10.74516,-24 24,-24c13.25484,0 24,10.74516 24,24c0,13.25484 -10.74516,24 -24,24c-13.25484,0 -24,-10.74516 -24,-24z" fill="#99c6ff" stroke-width="0"/><path d="M139,164.5c0,-13.25484 10.74516,-24 24,-24c13.25484,0 24,10.74516 24,24c0,13.25484 -10.74516,24 -24,24c-13.25484,0 -24,-10.74516 -24,-24z" fill="#99c6ff" stroke-width="0"/><path d="M139,171.5c0,-13.25484 10.74516,-24 24,-24c13.25484,0 24,10.74516 24,24c0,13.25484 -10.74516,24 -24,24c-13.25484,0 -24,-10.74516 -24,-24z" fill="#99c6ff" stroke-width="0"/><path d="M139,176.5c0,-13.25484 10.74516,-24 24,-24c13.25484,0 24,10.74516 24,24c0,13.25484 -10.74516,24 -24,24c-13.25484,0 -24,-10.74516 -24,-24z" fill="#99c6ff" stroke-width="0"/><path d="M139,183.5c0,-13.25484 10.74516,-24 24,-24c13.25484,0 24,10.74516 24,24c0,13.25484 -10.74516,24 -24,24c-13.25484,0 -24,-10.74516 -24,-24z" fill="#99c6ff" stroke-width="0"/><path d="M139,190.5c0,-13.25484 10.74516,-24 24,-24c13.25484,0 24,10.74516 24,24c0,13.25484 -10.74516,24 -24,24c-13.25484,0 -24,-10.74516 -24,-24z" fill="#99c6ff" stroke-width="0"/><path d="M139,195.5c0,-13.25484 10.74516,-24 24,-24c13.25484,0 24,10.74516 24,24c0,13.25484 -10.74516,24 -24,24c-13.25484,0 -24,-10.74516 -24,-24z" fill="#99c6ff" stroke-width="0"/><path d="M146,164.5c0,-13.25484 10.74516,-24 24,-24c13.25484,0 24,10.74516 24,24c0,13.25484 -10.74516,24 -24,24c-13.25484,0 -24,-10.74516 -24,-24z" fill="#99c6ff" stroke-width="0"/><path d="M146,171.5c0,-13.25484 10.74516,-24 24,-24c13.25484,0 24,10.74516 24,24c0,13.25484 -10.74516,24 -24,24c-13.25484,0 -24,-10.74516 -24,-24z" fill="#99c6ff" stroke-width="0"/><path d="M146,176.5c0,-13.25484 10.74516,-24 24,-24c13.25484,0 24,10.74516 24,24c0,13.25484 -10.74516,24 -24,24c-13.25484,0 -24,-10.74516 -24,-24z" fill="#99c6ff" stroke-width="0"/><path d="M146,183.5c0,-13.25484 10.74516,-24 24,-24c13.25484,0 24,10.74516 24,24c0,13.25484 -10.74516,24 -24,24c-13.25484,0 -24,-10.74516 -24,-24z" fill="#99c6ff" stroke-width="0"/><path d="M146,190.5c0,-13.25484 10.74516,-24 24,-24c13.25484,0 24,10.74516 24,24c0,13.25484 -10.74516,24 -24,24c-13.25484,0 -24,-10.74516 -24,-24z" fill="#99c6ff" stroke-width="0"/><path d="M146,195.5c0,-13.25484 10.74516,-24 24,-24c13.25484,0 24,10.74516 24,24c0,13.25484 -10.74516,24 -24,24c-13.25484,0 -24,-10.74516 -24,-24z" fill="#99c6ff" stroke-width="0"/><path d="M153,164.5c0,-13.25484 10.74516,-24 24,-24c13.25484,0 24,10.74516 24,24c0,13.25484 -10.74516,24 -24,24c-13.25484,0 -24,-10.74516 -24,-24z" fill="#99c6ff" stroke-width="0"/><path d="M153,171.5c0,-13.25484 10.74516,-24 24,-24c13.25484,0 24,10.74516 24,24c0,13.25484 -10.74516,24 -24,24c-13.25484,0 -24,-10.74516 -24,-24z" fill="#99c6ff" stroke-width="0"/><path d="M153,176.5c0,-13.25484 10.74516,-24 24,-24c13.25484,0 24,10.74516 24,24c0,13.25484 -10.74516,24 -24,24c-13.25484,0 -24,-10.74516 -24,-24z" fill="#99c6ff" stroke-width="0"/><path d="M153,183.5c0,-13.25484 10.74516,-24 24,-24c13.25484,0 24,10.74516 24,24c0,13.25484 -10.74516,24 -24,24c-13.25484,0 -24,-10.74516 -24,-24z" fill="#99c6ff" stroke-width="0"/><path d="M153,190.5c0,-13.25484 10.74516,-24 24,-24c13.25484,0 24,10.74516 24,24c0,13.25484 -10.74516,24 -24,24c-13.25484,0 -24,-10.74516 -24,-24z" fill="#99c6ff" stroke-width="0"/><path d="M153,195.5c0,-13.25484 10.74516,-24 24,-24c13.25484,0 24,10.74516 24,24c0,13.25484 -10.74516,24 -24,24c-13.25484,0 -24,-10.74516 -24,-24z" fill="#99c6ff" stroke-width="0"/><path d="M158,164.5c0,-13.25484 10.74516,-24 24,-24c13.25484,0 24,10.74516 24,24c0,13.25484 -10.74516,24 -24,24c-13.25484,0 -24,-10.74516 -24,-24z" fill="#99c6ff" stroke-width="0"/><path d="M158,171.5c0,-13.25484 10.74516,-24 24,-24c13.25484,0 24,10.74516 24,24c0,13.25484 -10.74516,24 -24,24c-13.25484,0 -24,-10.74516 -24,-24z" fill="#99c6ff" stroke-width="0"/><path d="M158,176.5c0,-13.25484 10.74516,-24 24,-24c13.25484,0 24,10.74516 24,24c0,13.25484 -10.74516,24 -24,24c-13.25484,0 -24,-10.74516 -24,-24z" fill="#99c6ff" stroke-width="0"/><path d="M158,183.5c0,-13.25484 10.74516,-24 24,-24c13.25484,0 24,10.74516 24,24c0,13.25484 -10.74516,24 -24,24c-13.25484,0 -24,-10.74516 -24,-24z" fill="#99c6ff" stroke-width="0"/><path d="M158,190.5c0,-13.25484 10.74516,-24 24,-24c13.25484,0 24,10.74516 24,24c0,13.25484 -10.74516,24 -24,24c-13.25484,0 -24,-10.74516 -24,-24z" fill="#99c6ff" stroke-width="0"/><path d="M158,195.5c0,-13.25484 10.74516,-24 24,-24c13.25484,0 24,10.74516 24,24c0,13.25484 -10.74516,24 -24,24c-13.25484,0 -24,-10.74516 -24,-24z" fill="#99c6ff" stroke-width="0"/><path d="M165,164.5c0,-13.25484 10.74516,-24 24,-24c13.25484,0 24,10.74516 24,24c0,13.25484 -10.74516,24 -24,24c-13.25484,0 -24,-10.74516 -24,-24z" fill="#99c6ff" stroke-width="0"/><path d="M165,171.5c0,-13.25484 10.74516,-24 24,-24c13.25484,0 24,10.74516 24,24c0,13.25484 -10.74516,24 -24,24c-13.25484,0 -24,-10.74516 -24,-24z" fill="#99c6ff" stroke-width="0"/><path d="M165,176.5c0,-13.25484 10.74516,-24 24,-24c13.25484,0 24,10.74516 24,24c0,13.25484 -10.74516,24 -24,24c-13.25484,0 -24,-10.74516 -24,-24z" fill="#99c6ff" stroke-width="0"/><path d="M165,183.5c0,-13.25484 10.74516,-24 24,-24c13.25484,0 24,10.74516 24,24c0,13.25484 -10.74516,24 -24,24c-13.25484,0 -24,-10.74516 -24,-24z" fill="#99c6ff" stroke-width="0"/><path d="M165,190.5c0,-13.25484 10.74516,-24 24,-24c13.25484,0 24,10.74516 24,24c0,13.25484 -10.74516,24 -24,24c-13.25484,0 -24,-10.74516 -24,-24z" fill="#99c6ff" stroke-width="0"/><path d="M165,195.5c0,-13.25484 10.74516,-24 24,-24c13.25484,0 24,10.74516 24,24c0,13.25484 -10.74516,24 -24,24c-13.25484,0 -24,-10.74516 -24,-24z" fill="#99c6ff" stroke-width="0"/><path d="M170,164.5c0,-13.25484 10.74516,-24 24,-24c13.25484,0 24,10.74516 24,24c0,13.25484 -10.74516,24 -24,24c-13.25484,0 -24,-10.74516 -24,-24z" fill="#99c6ff" stroke-width="0"/><path d="M170,171.5c0,-13.25484 10.74516,-24 24,-24c13.25484,0 24,10.74516 24,24c0,13.25484 -10.74516,24 -24,24c-13.25484,0 -24,-10.74516 -24,-24z" fill="#99c6ff" stroke-width="0"/><path d="M170,176.5c0,-13.25484 10.74516,-24 24,-24c13.25484,0 24,10.74516 24,24c0,13.25484 -10.74516,24 -24,24c-13.25484,0 -24,-10.74516 -24,-24z" fill="#99c6ff" stroke-width="0"/><path d="M170,183.5c0,-13.25484 10.74516,-24 24,-24c13.25484,0 24,10.74516 24,24c0,13.25484 -10.74516,24 -24,24c-13.25484,0 -24,-10.74516 -24,-24z" fill="#99c6ff" stroke-width="0"/><path d="M170,190.5c0,-13.25484 10.74516,-24 24,-24c13.25484,0 24,10.74516 24,24c0,13.25484 -10.74516,24 -24,24c-13.25484,0 -24,-10.74516 -24,-24z" fill="#99c6ff" stroke-width="0"/><path d="M170,195.5c0,-13.25484 10.74516,-24 24,-24c13.25484,0 24,10.74516 24,24c0,13.25484 -10.74516,24 -24,24c-13.25484,0 -24,-10.74516 -24,-24z" fill="#99c6ff" stroke-width="0"/><path d="M177,164.5c0,-13.25484 10.74516,-24 24,-24c13.25484,0 24,10.74516 24,24c0,13.25484 -10.74516,24 -24,24c-13.25484,0 -24,-10.74516 -24,-24z" fill="#99c6ff" stroke-width="0"/><path d="M177,171.5c0,-13.25484 10.74516,-24 24,-24c13.25484,0 24,10.74516 24,24c0,13.25484 -10.74516,24 -24,24c-13.25484,0 -24,-10.74516 -24,-24z" fill="#99c6ff" stroke-width="0"/><path d="M177,176.5c0,-13.25484 10.74516,-24 24,-24c13.25484,0 24,10.74516 24,24c0,13.25484 -10.74516,24 -24,24c-13.25484,0 -24,-10.74516 -24,-24z" fill="#99c6ff" stroke-width="0"/><path d="M177,183.5c0,-13.25484 10.74516,-24 24,-24c13.25484,0 24,10.74516 24,24c0,13.25484 -10.74516,24 -24,24c-13.25484,0 -24,-10.74516 -24,-24z" fill="#99c6ff" stroke-width="0"/><path d="M177,190.5c0,-13.25484 10.74516,-24 24,-24c13.25484,0 24,10.74516 24,24c0,13.25484 -10.74516,24 -24,24c-13.25484,0 -24,-10.74516 -24,-24z" fill="#99c6ff" stroke-width="0"/><path d="M177,195.5c0,-13.25484 10.74516,-24 24,-24c13.25484,0 24,10.74516 24,24c0,13.25484 -10.74516,24 -24,24c-13.25484,0 -24,-10.74516 -24,-24z" fill="#99c6ff" stroke-width="0"/><path d="M182,164.5c0,-13.25484 10.74516,-24 24,-24c13.25484,0 24,10.74516 24,24c0,13.25484 -10.74516,24 -24,24c-13.25484,0 -24,-10.74516 -24,-24z" fill="#99c6ff" stroke-width="0"/><path d="M182,171.5c0,-13.25484 10.74516,-24 24,-24c13.25484,0 24,10.74516 24,24c0,13.25484 -10.74516,24 -24,24c-13.25484,0 -24,-10.74516 -24,-24z" fill="#99c6ff" stroke-width="0"/><path d="M182,176.5c0,-13.25484 10.74516,-24 24,-24c13.25484,0 24,10.74516 24,24c0,13.25484 -10.74516,24 -24,24c-13.25484,0 -24,-10.74516 -24,-24z" fill="#99c6ff" stroke-width="0"/><path d="M182,183.5c0,-13.25484 10.74516,-24 24,-24c13.25484,0 24,10.74516 24,24c0,13.25484 -10.74516,24 -24,24c-13.25484,0 -24,-10.74516 -24,-24z" fill="#99c6ff" stroke-width="0"/><path d="M182,190.5c0,-13.25484 10.74516,-24 24,-24c13.25484,0 24,10.74516 24,24c0,13.25484 -10.74516,24 -24,24c-13.25484,0 -24,-10.74516 -24,-24z" fill="#99c6ff" stroke-width="0"/><path d="M182,195.5c0,-13.25484 10.74516,-24 24,-24c13.25484,0 24,10.74516 24,24c0,13.25484 -10.74516,24 -24,24c-13.25484,0 -24,-10.74516 -24,-24z" fill="#99c6ff" stroke-width="0"/><path d="M189,164.5c0,-13.25484 10.74516,-24 24,-24c13.25484,0 24,10.74516 24,24c0,13.25484 -10.74516,24 -24,24c-13.25484,0 -24,-10.74516 -24,-24z" fill="#99c6ff" stroke-width="0"/><path d="M189,171.5c0,-13.25484 10.74516,-24 24,-24c13.25484,0 24,10.74516 24,24c0,13.25484 -10.74516,24 -24,24c-13.25484,0 -24,-10.74516 -24,-24z" fill="#99c6ff" stroke-width="0"/><path d="M189,176.5c0,-13.25484 10.74516,-24 24,-24c13.25484,0 24,10.74516 24,24c0,13.25484 -10.74516,24 -24,24c-13.25484,0 -24,-10.74516 -24,-24z" fill="#99c6ff" stroke-width="0"/><path d="M189,183.5c0,-13.25484 10.74516,-24 24,-24c13.25484,0 24,10.74516 24,24c0,13.25484 -10.74516,24 -24,24c-13.25484,0 -24,-10.74516 -24,-24z" fill="#99c6ff" stroke-width="0"/><path d="M189,190.5c0,-13.25484 10.74516,-24 24,-24c13.25484,0 24,10.74516 24,24c0,13.25484 -10.74516,24 -24,24c-13.25484,0 -24,-10.74516 -24,-24z" fill="#99c6ff" stroke-width="0"/><path d="M189,195.5c0,-13.25484 10.74516,-24 24,-24c13.25484,0 24,10.74516 24,24c0,13.25484 -10.74516,24 -24,24c-13.25484,0 -24,-10.74516 -24,-24z" fill="#99c6ff" stroke-width="0"/><path d="M196,164.5c0,-13.25484 10.74516,-24 24,-24c13.25484,0 24,10.74516 24,24c0,13.25484 -10.74516,24 -24,24c-13.25484,0 -24,-10.74516 -24,-24z" fill="#99c6ff" stroke-width="0"/><path d="M196,171.5c0,-13.25484 10.74516,-24 24,-24c13.25484,0 24,10.74516 24,24c0,13.25484 -10.74516,24 -24,24c-13.25484,0 -24,-10.74516 -24,-24z" fill="#99c6ff" stroke-width="0"/><path d="M196,176.5c0,-13.25484 10.74516,-24 24,-24c13.25484,0 24,10.74516 24,24c0,13.25484 -10.74516,24 -24,24c-13.25484,0 -24,-10.74516 -24,-24z" fill="#99c6ff" stroke-width="0"/><path d="M196,183.5c0,-13.25484 10.74516,-24 24,-24c13.25484,0 24,10.74516 24,24c0,13.25484 -10.74516,24 -24,24c-13.25484,0 -24,-10.74516 -24,-24z" fill="#99c6ff" stroke-width="0"/><path d="M196,190.5c0,-13.25484 10.74516,-24 24,-24c13.25484,0 24,10.74516 24,24c0,13.25484 -10.74516,24 -24,24c-13.25484,0 -24,-10.74516 -24,-24z" fill="#99c6ff" stroke-width="0"/><path d="M196,195.5c0,-13.25484 10.74516,-24 24,-24c13.25484,0 24,10.74516 24,24c0,13.25484 -10.74516,24 -24,24c-13.25484,0 -24,-10.74516 -24,-24z" fill="#99c6ff" stroke-width="0"/><path d="M203,164.5c0,-13.25484 10.74516,-24 24,-24c13.25484,0 24,10.74516 24,24c0,13.25484 -10.74516,24 -24,24c-13.25484,0 -24,-10.74516 -24,-24z" fill="#99c6ff" stroke-width="0"/><path d="M203,171.5c0,-13.25484 10.74516,-24 24,-24c13.25484,0 24,10.74516 24,24c0,13.25484 -10.74516,24 -24,24c-13.25484,0 -24,-10.74516 -24,-24z" fill="#99c6ff" stroke-width="0"/><path d="M203,176.5c0,-13.25484 10.74516,-24 24,-24c13.25484,0 24,10.74516 24,24c0,13.25484 -10.74516,24 -24,24c-13.25484,0 -24,-10.74516 -24,-24z" fill="#99c6ff" stroke-width="0"/><path d="M203,183.5c0,-13.25484 10.74516,-24 24,-24c13.25484,0 24,10.74516 24,24c0,13.25484 -10.74516,24 -24,24c-13.25484,0 -24,-10.74516 -24,-24z" fill="#99c6ff" stroke-width="0"/><path d="M203,190.5c0,-13.25484 10.74516,-24 24,-24c13.25484,0 24,10.74516 24,24c0,13.25484 -10.74516,24 -24,24c-13.25484,0 -24,-10.74516 -24,-24z" fill="#99c6ff" stroke-width="0"/><path d="M203,195.5c0,-13.25484 10.74516,-24 24,-24c13.25484,0 24,10.74516 24,24c0,13.25484 -10.74516,24 -24,24c-13.25484,0 -24,-10.74516 -24,-24z" fill="#99c6ff" stroke-width="0"/><path d="M208,164.5c0,-13.25484 10.74516,-24 24,-24c13.25484,0 24,10.74516 24,24c0,13.25484 -10.74516,24 -24,24c-13.25484,0 -24,-10.74516 -24,-24z" fill="#99c6ff" stroke-width="0"/><path d="M208,171.5c0,-13.25484 10.74516,-24 24,-24c13.25484,0 24,10.74516 24,24c0,13.25484 -10.74516,24 -24,24c-13.25484,0 -24,-10.74516 -24,-24z" fill="#99c6ff" stroke-width="0"/><path d="M208,176.5c0,-13.25484 10.74516,-24 24,-24c13.25484,0 24,10.74516 24,24c0,13.25484 -10.74516,24 -24,24c-13.25484,0 -24,-10.74516 -24,-24z" fill="#99c6ff" stroke-width="0"/><path d="M208,183.5c0,-13.25484 10.74516,-24 24,-24c13.25484,0 24,10.74516 24,24c0,13.25484 -10.74516,24 -24,24c-13.25484,0 -24,-10.74516 -24,-24z" fill="#99c6ff" stroke-width="0"/><path d="M208,190.5c0,-13.25484 10.74516,-24 24,-24c13.25484,0 24,10.74516 24,24c0,13.25484 -10.74516,24 -24,24c-13.25484,0 -24,-10.74516 -24,-24z" fill="#99c6ff" stroke-width="0"/><path d="M208,195.5c0,-13.25484 10.74516,-24 24,-24c13.25484,0 24,10.74516 24,24c0,13.25484 -10.74516,24 -24,24c-13.25484,0 -24,-10.74516 -24,-24z" fill="#99c6ff" stroke-width="0"/><path d="M215,164.5c0,-13.25484 10.74516,-24 24,-24c13.25484,0 24,10.74516 24,24c0,13.25484 -10.74516,24 -24,24c-13.25484,0 -24,-10.74516 -24,-24z" fill="#99c6ff" stroke-width="0"/><path d="M215,171.5c0,-13.25484 10.74516,-24 24,-24c13.25484,0 24,10.74516 24,24c0,13.25484 -10.74516,24 -24,24c-13.25484,0 -24,-10.74516 -24,-24z" fill="#99c6ff" stroke-width="0"/><path d="M215,176.5c0,-13.25484 10.74516,-24 24,-24c13.25484,0 24,10.74516 24,24c0,13.25484 -10.74516,24 -24,24c-13.25484,0 -24,-10.74516 -24,-24z" fill="#99c6ff" stroke-width="0"/><path d="M215,183.5c0,-13.25484 10.74516,-24 24,-24c13.25484,0 24,10.74516 24,24c0,13.25484 -10.74516,24 -24,24c-13.25484,0 -24,-10.74516 -24,-24z" fill="#99c6ff" stroke-width="0"/><path d="M215,190.5c0,-13.25484 10.74516,-24 24,-24c13.25484,0 24,10.74516 24,24c0,13.25484 -10.74516,24 -24,24c-13.25484,0 -24,-10.74516 -24,-24z" fill="#99c6ff" stroke-width="0"/><path d="M215,195.5c0,-13.25484 10.74516,-24 24,-24c13.25484,0 24,10.74516 24,24c0,13.25484 -10.74516,24 -24,24c-13.25484,0 -24,-10.74516 -24,-24z" fill="#99c6ff" stroke-width="0"/><path d="M217,164.5c0,-13.25484 10.74516,-24 24,-24c13.25484,0 24,10.74516 24,24c0,13.25484 -10.74516,24 -24,24c-13.25484,0 -24,-10.74516 -24,-24z" fill="#99c6ff" stroke-width="0"/><path d="M217,171.5c0,-13.25484 10.74516,-24 24,-24c13.25484,0 24,10.74516 24,24c0,13.25484 -10.74516,24 -24,24c-13.25484,0 -24,-10.74516 -24,-24z" fill="#99c6ff" stroke-width="0"/><path d="M217,176.5c0,-13.25484 10.74516,-24 24,-24c13.25484,0 24,10.74516 24,24c0,13.25484 -10.74516,24 -24,24c-13.25484,0 -24,-10.74516 -24,-24z" fill="#99c6ff" stroke-width="0"/><path d="M217,183.5c0,-13.25484 10.74516,-24 24,-24c13.25484,0 24,10.74516 24,24c0,13.25484 -10.74516,24 -24,24c-13.25484,0 -24,-10.74516 -24,-24z" fill="#99c6ff" stroke-width="0"/><path d="M217,190.5c0,-13.25484 10.74516,-24 24,-24c13.25484,0 24,10.74516 24,24c0,13.25484 -10.74516,24 -24,24c-13.25484,0 -24,-10.74516 -24,-24z" fill="#99c6ff" stroke-width="0"/><path d="M217,195.5c0,-13.25484 10.74516,-24 24,-24c13.25484,0 24,10.74516 24,24c0,13.25484 -10.74516,24 -24,24c-13.25484,0 -24,-10.74516 -24,-24z" fill="#99c6ff" stroke-width="0"/><path d="M224,164.5c0,-13.25484 10.74516,-24 24,-24c13.25484,0 24,10.74516 24,24c0,13.25484 -10.74516,24 -24,24c-13.25484,0 -24,-10.74516 -24,-24z" fill="#99c6ff" stroke-width="0"/><path d="M224,171.5c0,-13.25484 10.74516,-24 24,-24c13.25484,0 24,10.74516 24,24c0,13.25484 -10.74516,24 -24,24c-13.25484,0 -24,-10.74516 -24,-24z" fill="#99c6ff" stroke-width="0"/><path d="M224,176.5c0,-13.25484 10.74516,-24 24,-24c13.25484,0 24,10.74516 24,24c0,13.25484 -10.74516,24 -24,24c-13.25484,0 -24,-10.74516 -24,-24z" fill="#99c6ff" stroke-width="0"/><path d="M224,183.5c0,-13.25484 10.74516,-24 24,-24c13.25484,0 24,10.74516 24,24c0,13.25484 -10.74516,24 -24,24c-13.25484,0 -24,-10.74516 -24,-24z" fill="#99c6ff" stroke-width="0"/><path d="M224,190.5c0,-13.25484 10.74516,-24 24,-24c13.25484,0 24,10.74516 24,24c0,13.25484 -10.74516,24 -24,24c-13.25484,0 -24,-10.74516 -24,-24z" fill="#99c6ff" stroke-width="0"/><path d="M224,195.5c0,-13.25484 10.74516,-24 24,-24c13.25484,0 24,10.74516 24,24c0,13.25484 -10.74516,24 -24,24c-13.25484,0 -24,-10.74516 -24,-24z" fill="#99c6ff" stroke-width="0"/><path d="M229,164.5c0,-13.25484 10.74516,-24 24,-24c13.25484,0 24,10.74516 24,24c0,13.25484 -10.74516,24 -24,24c-13.25484,0 -24,-10.74516 -24,-24z" fill="#99c6ff" stroke-width="0"/><path d="M229,171.5c0,-13.25484 10.74516,-24 24,-24c13.25484,0 24,10.74516 24,24c0,13.25484 -10.74516,24 -24,24c-13.25484,0 -24,-10.74516 -24,-24z" fill="#99c6ff" stroke-width="0"/><path d="M229,176.5c0,-13.25484 10.74516,-24 24,-24c13.25484,0 24,10.74516 24,24c0,13.25484 -10.74516,24 -24,24c-13.25484,0 -24,-10.74516 -24,-24z" fill="#99c6ff" stroke-width="0"/><path d="M229,183.5c0,-13.25484 10.74516,-24 24,-24c13.25484,0 24,10.74516 24,24c0,13.25484 -10.74516,24 -24,24c-13.25484,0 -24,-10.74516 -24,-24z" fill="#99c6ff" stroke-width="0"/><path d="M229,190.5c0,-13.25484 10.74516,-24 24,-24c13.25484,0 24,10.74516 24,24c0,13.25484 -10.74516,24 -24,24c-13.25484,0 -24,-10.74516 -24,-24z" fill="#99c6ff" stroke-width="0"/><path d="M229,195.5c0,-13.25484 10.74516,-24 24,-24c13.25484,0 24,10.74516 24,24c0,13.25484 -10.74516,24 -24,24c-13.25484,0 -24,-10.74516 -24,-24z" fill="#99c6ff" stroke-width="0"/><path d="M236,164.5c0,-13.25484 10.74516,-24 24,-24c13.25484,0 24,10.74516 24,24c0,13.25484 -10.74516,24 -24,24c-13.25484,0 -24,-10.74516 -24,-24z" fill="#99c6ff" stroke-width="0"/><path d="M236,171.5c0,-13.25484 10.74516,-24 24,-24c13.25484,0 24,10.74516 24,24c0,13.25484 -10.74516,24 -24,24c-13.25484,0 -24,-10.74516 -24,-24z" fill="#99c6ff" stroke-width="0"/><path d="M236,176.5c0,-13.25484 10.74516,-24 24,-24c13.25484,0 24,10.74516 24,24c0,13.25484 -10.74516,24 -24,24c-13.25484,0 -24,-10.74516 -24,-24z" fill="#99c6ff" stroke-width="0"/><path d="M236,183.5c0,-13.25484 10.74516,-24 24,-24c13.25484,0 24,10.74516 24,24c0,13.25484 -10.74516,24 -24,24c-13.25484,0 -24,-10.74516 -24,-24z" fill="#99c6ff" stroke-width="0"/><path d="M236,190.5c0,-13.25484 10.74516,-24 24,-24c13.25484,0 24,10.74516 24,24c0,13.25484 -10.74516,24 -24,24c-13.25484,0 -24,-10.74516 -24,-24z" fill="#99c6ff" stroke-width="0"/><path d="M236,195.5c0,-13.25484 10.74516,-24 24,-24c13.25484,0 24,10.74516 24,24c0,13.25484 -10.74516,24 -24,24c-13.25484,0 -24,-10.74516 -24,-24z" fill="#99c6ff" stroke-width="0"/><path d="M243,164.5c0,-13.25484 10.74516,-24 24,-24c13.25484,0 24,10.74516 24,24c0,13.25484 -10.74516,24 -24,24c-13.25484,0 -24,-10.74516 -24,-24z" fill="#99c6ff" stroke-width="0"/><path d="M243,171.5c0,-13.25484 10.74516,-24 24,-24c13.25484,0 24,10.74516 24,24c0,13.25484 -10.74516,24 -24,24c-13.25484,0 -24,-10.74516 -24,-24z" fill="#99c6ff" stroke-width="0"/><path d="M243,176.5c0,-13.25484 10.74516,-24 24,-24c13.25484,0 24,10.74516 24,24c0,13.25484 -10.74516,24 -24,24c-13.25484,0 -24,-10.74516 -24,-24z" fill="#99c6ff" stroke-width="0"/><path d="M243,183.5c0,-13.25484 10.74516,-24 24,-24c13.25484,0 24,10.74516 24,24c0,13.25484 -10.74516,24 -24,24c-13.25484,0 -24,-10.74516 -24,-24z" fill="#99c6ff" stroke-width="0"/><path d="M243,190.5c0,-13.25484 10.74516,-24 24,-24c13.25484,0 24,10.74516 24,24c0,13.25484 -10.74516,24 -24,24c-13.25484,0 -24,-10.74516 -24,-24z" fill="#99c6ff" stroke-width="0"/><path d="M243,195.5c0,-13.25484 10.74516,-24 24,-24c13.25484,0 24,10.74516 24,24c0,13.25484 -10.74516,24 -24,24c-13.25484,0 -24,-10.74516 -24,-24z" fill="#99c6ff" stroke-width="0"/><path d="M250,164.5c0,-13.25484 10.74516,-24 24,-24c13.25484,0 24,10.74516 24,24c0,13.25484 -10.74516,24 -24,24c-13.25484,0 -24,-10.74516 -24,-24z" fill="#99c6ff" stroke-width="0"/><path d="M250,171.5c0,-13.25484 10.74516,-24 24,-24c13.25484,0 24,10.74516 24,24c0,13.25484 -10.74516,24 -24,24c-13.25484,0 -24,-10.74516 -24,-24z" fill="#99c6ff" stroke-width="0"/><path d="M250,176.5c0,-13.25484 10.74516,-24 24,-24c13.25484,0 24,10.74516 24,24c0,13.25484 -10.74516,24 -24,24c-13.25484,0 -24,-10.74516 -24,-24z" fill="#99c6ff" stroke-width="0"/><path d="M250,183.5c0,-13.25484 10.74516,-24 24,-24c13.25484,0 24,10.74516 24,24c0,13.25484 -10.74516,24 -24,24c-13.25484,0 -24,-10.74516 -24,-24z" fill="#99c6ff" stroke-width="0"/><path d="M250,190.5c0,-13.25484 10.74516,-24 24,-24c13.25484,0 24,10.74516 24,24c0,13.25484 -10.74516,24 -24,24c-13.25484,0 -24,-10.74516 -24,-24z" fill="#99c6ff" stroke-width="0"/><path d="M250,195.5c0,-13.25484 10.74516,-24 24,-24c13.25484,0 24,10.74516 24,24c0,13.25484 -10.74516,24 -24,24c-13.25484,0 -24,-10.74516 -24,-24z" fill="#99c6ff" stroke-width="0"/><path d="M255,164.5c0,-13.25484 10.74516,-24 24,-24c13.25484,0 24,10.74516 24,24c0,13.25484 -10.74516,24 -24,24c-13.25484,0 -24,-10.74516 -24,-24z" fill="#99c6ff" stroke-width="0"/><path d="M255,171.5c0,-13.25484 10.74516,-24 24,-24c13.25484,0 24,10.74516 24,24c0,13.25484 -10.74516,24 -24,24c-13.25484,0 -24,-10.74516 -24,-24z" fill="#99c6ff" stroke-width="0"/><path d="M255,176.5c0,-13.25484 10.74516,-24 24,-24c13.25484,0 24,10.74516 24,24c0,13.25484 -10.74516,24 -24,24c-13.25484,0 -24,-10.74516 -24,-24z" fill="#99c6ff" stroke-width="0"/><path d="M255,183.5c0,-13.25484 10.74516,-24 24,-24c13.25484,0 24,10.74516 24,24c0,13.25484 -10.74516,24 -24,24c-13.25484,0 -24,-10.74516 -24,-24z" fill="#99c6ff" stroke-width="0"/><path d="M255,190.5c0,-13.25484 10.74516,-24 24,-24c13.25484,0 24,10.74516 24,24c0,13.25484 -10.74516,24 -24,24c-13.25484,0 -24,-10.74516 -24,-24z" fill="#99c6ff" stroke-width="0"/><path d="M255,195.5c0,-13.25484 10.74516,-24 24,-24c13.25484,0 24,10.74516 24,24c0,13.25484 -10.74516,24 -24,24c-13.25484,0 -24,-10.74516 -24,-24z" fill="#99c6ff" stroke-width="0"/><path d="M262,164.5c0,-13.25484 10.74516,-24 24,-24c13.25484,0 24,10.74516 24,24c0,13.25484 -10.74516,24 -24,24c-13.25484,0 -24,-10.74516 -24,-24z" fill="#99c6ff" stroke-width="0"/><path d="M262,171.5c0,-13.25484 10.74516,-24 24,-24c13.25484,0 24,10.74516 24,24c0,13.25484 -10.74516,24 -24,24c-13.25484,0 -24,-10.74516 -24,-24z" fill="#99c6ff" stroke-width="0"/><path d="M262,176.5c0,-13.25484 10.74516,-24 24,-24c13.25484,0 24,10.74516 24,24c0,13.25484 -10.74516,24 -24,24c-13.25484,0 -24,-10.74516 -24,-24z" fill="#99c6ff" stroke-width="0"/><path d="M262,183.5c0,-13.25484 10.74516,-24 24,-24c13.25484,0 24,10.74516 24,24c0,13.25484 -10.74516,24 -24,24c-13.25484,0 -24,-10.74516 -24,-24z" fill="#99c6ff" stroke-width="0"/><path d="M262,190.5c0,-13.25484 10.74516,-24 24,-24c13.25484,0 24,10.74516 24,24c0,13.25484 -10.74516,24 -24,24c-13.25484,0 -24,-10.74516 -24,-24z" fill="#99c6ff" stroke-width="0"/><path d="M262,195.5c0,-13.25484 10.74516,-24 24,-24c13.25484,0 24,10.74516 24,24c0,13.25484 -10.74516,24 -24,24c-13.25484,0 -24,-10.74516 -24,-24z" fill="#99c6ff" stroke-width="0"/><path d="M267,164.5c0,-13.25484 10.74516,-24 24,-24c13.25484,0 24,10.74516 24,24c0,13.25484 -10.74516,24 -24,24c-13.25484,0 -24,-10.74516 -24,-24z" fill="#99c6ff" stroke-width="0"/><path d="M267,171.5c0,-13.25484 10.74516,-24 24,-24c13.25484,0 24,10.74516 24,24c0,13.25484 -10.74516,24 -24,24c-13.25484,0 -24,-10.74516 -24,-24z" fill="#99c6ff" stroke-width="0"/><path d="M267,176.5c0,-13.25484 10.74516,-24 24,-24c13.25484,0 24,10.74516 24,24c0,13.25484 -10.74516,24 -24,24c-13.25484,0 -24,-10.74516 -24,-24z" fill="#99c6ff" stroke-width="0"/><path d="M267,183.5c0,-13.25484 10.74516,-24 24,-24c13.25484,0 24,10.74516 24,24c0,13.25484 -10.74516,24 -24,24c-13.25484,0 -24,-10.74516 -24,-24z" fill="#99c6ff" stroke-width="0"/><path d="M267,190.5c0,-13.25484 10.74516,-24 24,-24c13.25484,0 24,10.74516 24,24c0,13.25484 -10.74516,24 -24,24c-13.25484,0 -24,-10.74516 -24,-24z" fill="#99c6ff" stroke-width="0"/><path d="M267,195.5c0,-13.25484 10.74516,-24 24,-24c13.25484,0 24,10.74516 24,24c0,13.25484 -10.74516,24 -24,24c-13.25484,0 -24,-10.74516 -24,-24z" fill="#99c6ff" stroke-width="0"/><path d="M274,164.5c0,-13.25484 10.74516,-24 24,-24c13.25484,0 24,10.74516 24,24c0,13.25484 -10.74516,24 -24,24c-13.25484,0 -24,-10.74516 -24,-24z" fill="#99c6ff" stroke-width="0"/><path d="M274,171.5c0,-13.25484 10.74516,-24 24,-24c13.25484,0 24,10.74516 24,24c0,13.25484 -10.74516,24 -24,24c-13.25484,0 -24,-10.74516 -24,-24z" fill="#99c6ff" stroke-width="0"/><path d="M274,176.5c0,-13.25484 10.74516,-24 24,-24c13.25484,0 24,10.74516 24,24c0,13.25484 -10.74516,24 -24,24c-13.25484,0 -24,-10.74516 -24,-24z" fill="#99c6ff" stroke-width="0"/><path d="M274,183.5c0,-13.25484 10.74516,-24 24,-24c13.25484,0 24,10.74516 24,24c0,13.25484 -10.74516,24 -24,24c-13.25484,0 -24,-10.74516 -24,-24z" fill="#99c6ff" stroke-width="0"/><path d="M274,190.5c0,-13.25484 10.74516,-24 24,-24c13.25484,0 24,10.74516 24,24c0,13.25484 -10.74516,24 -24,24c-13.25484,0 -24,-10.74516 -24,-24z" fill="#99c6ff" stroke-width="0"/><path d="M274,195.5c0,-13.25484 10.74516,-24 24,-24c13.25484,0 24,10.74516 24,24c0,13.25484 -10.74516,24 -24,24c-13.25484,0 -24,-10.74516 -24,-24z" fill="#99c6ff" stroke-width="0"/><path d="M279,164.5c0,-13.25484 10.74516,-24 24,-24c13.25484,0 24,10.74516 24,24c0,13.25484 -10.74516,24 -24,24c-13.25484,0 -24,-10.74516 -24,-24z" fill="#99c6ff" stroke-width="0"/><path d="M279,171.5c0,-13.25484 10.74516,-24 24,-24c13.25484,0 24,10.74516 24,24c0,13.25484 -10.74516,24 -24,24c-13.25484,0 -24,-10.74516 -24,-24z" fill="#99c6ff" stroke-width="0"/><path d="M279,176.5c0,-13.25484 10.74516,-24 24,-24c13.25484,0 24,10.74516 24,24c0,13.25484 -10.74516,24 -24,24c-13.25484,0 -24,-10.74516 -24,-24z" fill="#99c6ff" stroke-width="0"/><path d="M279,183.5c0,-13.25484 10.74516,-24 24,-24c13.25484,0 24,10.74516 24,24c0,13.25484 -10.74516,24 -24,24c-13.25484,0 -24,-10.74516 -24,-24z" fill="#99c6ff" stroke-width="0"/><path d="M279,190.5c0,-13.25484 10.74516,-24 24,-24c13.25484,0 24,10.74516 24,24c0,13.25484 -10.74516,24 -24,24c-13.25484,0 -24,-10.74516 -24,-24z" fill="#99c6ff" stroke-width="0"/><path d="M279,195.5c0,-13.25484 10.74516,-24 24,-24c13.25484,0 24,10.74516 24,24c0,13.25484 -10.74516,24 -24,24c-13.25484,0 -24,-10.74516 -24,-24z" fill="#99c6ff" stroke-width="0"/><path d="M286,164.5c0,-13.25484 10.74516,-24 24,-24c13.25484,0 24,10.74516 24,24c0,13.25484 -10.74516,24 -24,24c-13.25484,0 -24,-10.74516 -24,-24z" fill="#99c6ff" stroke-width="0"/><path d="M286,171.5c0,-13.25484 10.74516,-24 24,-24c13.25484,0 24,10.74516 24,24c0,13.25484 -10.74516,24 -24,24c-13.25484,0 -24,-10.74516 -24,-24z" fill="#99c6ff" stroke-width="0"/><path d="M286,176.5c0,-13.25484 10.74516,-24 24,-24c13.25484,0 24,10.74516 24,24c0,13.25484 -10.74516,24 -24,24c-13.25484,0 -24,-10.74516 -24,-24z" fill="#99c6ff" stroke-width="0"/><path d="M286,183.5c0,-13.25484 10.74516,-24 24,-24c13.25484,0 24,10.74516 24,24c0,13.25484 -10.74516,24 -24,24c-13.25484,0 -24,-10.74516 -24,-24z" fill="#99c6ff" stroke-width="0"/><path d="M286,190.5c0,-13.25484 10.74516,-24 24,-24c13.25484,0 24,10.74516 24,24c0,13.25484 -10.74516,24 -24,24c-13.25484,0 -24,-10.74516 -24,-24z" fill="#99c6ff" stroke-width="0"/><path d="M286,195.5c0,-13.25484 10.74516,-24 24,-24c13.25484,0 24,10.74516 24,24c0,13.25484 -10.74516,24 -24,24c-13.25484,0 -24,-10.74516 -24,-24z" fill="#99c6ff" stroke-width="0"/><path d="M293,164.5c0,-13.25484 10.74516,-24 24,-24c13.25484,0 24,10.74516 24,24c0,13.25484 -10.74516,24 -24,24c-13.25484,0 -24,-10.74516 -24,-24z" fill="#99c6ff" stroke-width="0"/><path d="M293,171.5c0,-13.25484 10.74516,-24 24,-24c13.25484,0 24,10.74516 24,24c0,13.25484 -10.74516,24 -24,24c-13.25484,0 -24,-10.74516 -24,-24z" fill="#99c6ff" stroke-width="0"/><path d="M293,176.5c0,-13.25484 10.74516,-24 24,-24c13.25484,0 24,10.74516 24,24c0,13.25484 -10.74516,24 -24,24c-13.25484,0 -24,-10.74516 -24,-24z" fill="#99c6ff" stroke-width="0"/><path d="M293,183.5c0,-13.25484 10.74516,-24 24,-24c13.25484,0 24,10.74516 24,24c0,13.25484 -10.74516,24 -24,24c-13.25484,0 -24,-10.74516 -24,-24z" fill="#99c6ff" stroke-width="0"/><path d="M293,190.5c0,-13.25484 10.74516,-24 24,-24c13.25484,0 24,10.74516 24,24c0,13.25484 -10.74516,24 -24,24c-13.25484,0 -24,-10.74516 -24,-24z" fill="#99c6ff" stroke-width="0"/><path d="M293,195.5c0,-13.25484 10.74516,-24 24,-24c13.25484,0 24,10.74516 24,24c0,13.25484 -10.74516,24 -24,24c-13.25484,0 -24,-10.74516 -24,-24z" fill="#99c6ff" stroke-width="0"/><path d="M300,164.5c0,-13.25484 10.74516,-24 24,-24c13.25484,0 24,10.74516 24,24c0,13.25484 -10.74516,24 -24,24c-13.25484,0 -24,-10.74516 -24,-24z" fill="#99c6ff" stroke-width="0"/><path d="M300,171.5c0,-13.25484 10.74516,-24 24,-24c13.25484,0 24,10.74516 24,24c0,13.25484 -10.74516,24 -24,24c-13.25484,0 -24,-10.74516 -24,-24z" fill="#99c6ff" stroke-width="0"/><path d="M300,176.5c0,-13.25484 10.74516,-24 24,-24c13.25484,0 24,10.74516 24,24c0,13.25484 -10.74516,24 -24,24c-13.25484,0 -24,-10.74516 -24,-24z" fill="#99c6ff" stroke-width="0"/><path d="M300,183.5c0,-13.25484 10.74516,-24 24,-24c13.25484,0 24,10.74516 24,24c0,13.25484 -10.74516,24 -24,24c-13.25484,0 -24,-10.74516 -24,-24z" fill="#99c6ff" stroke-width="0"/><path d="M300,190.5c0,-13.25484 10.74516,-24 24,-24c13.25484,0 24,10.74516 24,24c0,13.25484 -10.74516,24 -24,24c-13.25484,0 -24,-10.74516 -24,-24z" fill="#99c6ff" stroke-width="0"/><path d="M300,195.5c0,-13.25484 10.74516,-24 24,-24c13.25484,0 24,10.74516 24,24c0,13.25484 -10.74516,24 -24,24c-13.25484,0 -24,-10.74516 -24,-24z" fill="#99c6ff" stroke-width="0"/><path d="M305,164.5c0,-13.25484 10.74516,-24 24,-24c13.25484,0 24,10.74516 24,24c0,13.25484 -10.74516,24 -24,24c-13.25484,0 -24,-10.74516 -24,-24z" fill="#99c6ff" stroke-width="0"/><path d="M305,171.5c0,-13.25484 10.74516,-24 24,-24c13.25484,0 24,10.74516 24,24c0,13.25484 -10.74516,24 -24,24c-13.25484,0 -24,-10.74516 -24,-24z" fill="#99c6ff" stroke-width="0"/><path d="M305,176.5c0,-13.25484 10.74516,-24 24,-24c13.25484,0 24,10.74516 24,24c0,13.25484 -10.74516,24 -24,24c-13.25484,0 -24,-10.74516 -24,-24z" fill="#99c6ff" stroke-width="0"/><path d="M305,183.5c0,-13.25484 10.74516,-24 24,-24c13.25484,0 24,10.74516 24,24c0,13.25484 -10.74516,24 -24,24c-13.25484,0 -24,-10.74516 -24,-24z" fill="#99c6ff" stroke-width="0"/><path d="M305,190.5c0,-13.25484 10.74516,-24 24,-24c13.25484,0 24,10.74516 24,24c0,13.25484 -10.74516,24 -24,24c-13.25484,0 -24,-10.74516 -24,-24z" fill="#99c6ff" stroke-width="0"/><path d="M305,195.5c0,-13.25484 10.74516,-24 24,-24c13.25484,0 24,10.74516 24,24c0,13.25484 -10.74516,24 -24,24c-13.25484,0 -24,-10.74516 -24,-24z" fill="#99c6ff" stroke-width="0"/><path d="M312,164.5c0,-13.25484 10.74516,-24 24,-24c13.25484,0 24,10.74516 24,24c0,13.25484 -10.74516,24 -24,24c-13.25484,0 -24,-10.74516 -24,-24z" fill="#99c6ff" stroke-width="0"/><path d="M312,171.5c0,-13.25484 10.74516,-24 24,-24c13.25484,0 24,10.74516 24,24c0,13.25484 -10.74516,24 -24,24c-13.25484,0 -24,-10.74516 -24,-24z" fill="#99c6ff" stroke-width="0"/><path d="M312,176.5c0,-13.25484 10.74516,-24 24,-24c13.25484,0 24,10.74516 24,24c0,13.25484 -10.74516,24 -24,24c-13.25484,0 -24,-10.74516 -24,-24z" fill="#99c6ff" stroke-width="0"/><path d="M312,183.5c0,-13.25484 10.74516,-24 24,-24c13.25484,0 24,10.74516 24,24c0,13.25484 -10.74516,24 -24,24c-13.25484,0 -24,-10.74516 -24,-24z" fill="#99c6ff" stroke-width="0"/><path d="M312,190.5c0,-13.25484 10.74516,-24 24,-24c13.25484,0 24,10.74516 24,24c0,13.25484 -10.74516,24 -24,24c-13.25484,0 -24,-10.74516 -24,-24z" fill="#99c6ff" stroke-width="0"/><path d="M312,195.5c0,-13.25484 10.74516,-24 24,-24c13.25484,0 24,10.74516 24,24c0,13.25484 -10.74516,24 -24,24c-13.25484,0 -24,-10.74516 -24,-24z" fill="#99c6ff" stroke-width="0"/><text transform="translate(148.05494,197.02971) scale(1.08206,1.08206)" font-size="40" xml:space="preserve" fill="#ffffff" fill-rule="nonzero" stroke="none" stroke-width="1" stroke-linecap="butt" stroke-linejoin="miter" stroke-miterlimit="10" stroke-dasharray="" stroke-dashoffset="0" font-family="Sans Serif" font-weight="normal" text-anchor="start" style="mix-blend-mode: normal"><tspan x="0" dy="0">NORMAL</tspan></text></g></g></svg>